<svg width="33" height="32" viewBox="0 0 33 32" fill="none" xmlns="http://www.w3.org/2000/svg">
<path d="M16.5 32C15.1802 32 14.1103 30.9301 14.1103 29.6103V2.38966C14.1103 1.06989 15.1802 0 16.5 0V0C17.8198 0 18.8897 1.06989 18.8897 2.38966V29.6103C18.8897 30.9301 17.8198 32 16.5 32V32ZM2.22642 18.2642C0.996801 18.2642 0 17.2674 0 16.0377V16.0377C0 14.8081 0.9968 13.8113 2.22641 13.8113H30.7736C32.0032 13.8113 33 14.8081 33 16.0377V16.0377C33 17.2674 32.0032 18.2642 30.7736 18.2642H2.22642Z" fill="#4A8888"/>
</svg>
